<?xml version="1.0" encoding="UTF-8" standalone="no"?>
<!DOCTYPE svg PUBLIC "-//W3C//DTD SVG 1.1//EN"
 "http://www.w3.org/Graphics/SVG/1.1/DTD/svg11.dtd">
<!-- Generated by graphviz version 2.38.0 (20140413.2041)
 -->
<!-- Title: yarr/optimization_macros.hpp Pages: 1 -->
<svg width="210pt" height="140pt"
 viewBox="0.00 0.00 210.00 140.00" xmlns="http://www.w3.org/2000/svg" xmlns:xlink="http://www.w3.org/1999/xlink">
<g id="graph0" class="graph" transform="scale(1 1) rotate(0) translate(4 136)">
<title>yarr/optimization_macros.hpp</title>
<polygon fill="white" stroke="none" points="-4,4 -4,-136 206,-136 206,4 -4,4"/>
<!-- Node1 -->
<g id="node1" class="node"><title>Node1</title>
<polygon fill="#bfbfbf" stroke="black" points="55,-112.5 55,-131.5 202,-131.5 202,-112.5 55,-112.5"/>
<text text-anchor="middle" x="128.5" y="-119.5" font-family="Helvetica,sans-Serif" font-size="10.00">yarr/optimization_macros.hpp</text>
</g>
<!-- Node2 -->
<g id="node2" class="node"><title>Node2</title>
<g id="a_node2"><a xlink:href="at__each__aligned_8hpp_source.html" target="_top" xlink:title="yarr/algo/at_each_aligned.hpp">
<polygon fill="white" stroke="black" points="0,-56.5 0,-75.5 153,-75.5 153,-56.5 0,-56.5"/>
<text text-anchor="middle" x="76.5" y="-63.5" font-family="Helvetica,sans-Serif" font-size="10.00">yarr/algo/at_each_aligned.hpp</text>
</a>
</g>
</g>
<!-- Node1&#45;&gt;Node2 -->
<g id="edge1" class="edge"><title>Node1&#45;&gt;Node2</title>
<path fill="none" stroke="midnightblue" d="M112.821,-104.718C103.655,-95.1997 92.4474,-83.5608 84.927,-75.7511"/>
<polygon fill="midnightblue" stroke="midnightblue" points="110.456,-107.308 119.913,-112.083 115.498,-102.452 110.456,-107.308"/>
</g>
<!-- Node3 -->
<g id="node3" class="node"><title>Node3</title>
<g id="a_node3"><a xlink:href="at__each__aligned_8ipp_source.html" target="_top" xlink:title="yarr/algo/at_each_aligned.ipp">
<polygon fill="white" stroke="black" points="1.5,-0.5 1.5,-19.5 151.5,-19.5 151.5,-0.5 1.5,-0.5"/>
<text text-anchor="middle" x="76.5" y="-7.5" font-family="Helvetica,sans-Serif" font-size="10.00">yarr/algo/at_each_aligned.ipp</text>
</a>
</g>
</g>
<!-- Node1&#45;&gt;Node3 -->
<g id="edge4" class="edge"><title>Node1&#45;&gt;Node3</title>
<path fill="none" stroke="midnightblue" d="M146.129,-105.327C158.936,-91.971 172.424,-72.3929 162.5,-56 151.243,-37.4042 129.493,-26.123 110.684,-19.5065"/>
<polygon fill="midnightblue" stroke="midnightblue" points="143.582,-102.921 138.849,-112.4 148.46,-107.941 143.582,-102.921"/>
</g>
<!-- Node2&#45;&gt;Node3 -->
<g id="edge2" class="edge"><title>Node2&#45;&gt;Node3</title>
<path fill="none" stroke="midnightblue" d="M70.0276,-46.1005C69.3956,-37.1357 69.8427,-26.8579 71.369,-19.7511"/>
<polygon fill="midnightblue" stroke="midnightblue" points="66.5658,-46.6216 71.3337,-56.083 73.5067,-45.7134 66.5658,-46.6216"/>
</g>
<!-- Node3&#45;&gt;Node2 -->
<g id="edge3" class="edge"><title>Node3&#45;&gt;Node2</title>
<path fill="none" stroke="midnightblue" d="M82.9575,-29.6911C83.6062,-38.6353 83.1758,-48.9272 81.6663,-56.083"/>
<polygon fill="midnightblue" stroke="midnightblue" points="86.4231,-29.2002 81.631,-19.7511 79.4846,-30.1262 86.4231,-29.2002"/>
</g>
</g>
</svg>
