<?xml version="1.0" encoding="UTF-8" standalone="no"?>
<!DOCTYPE svg PUBLIC "-//W3C//DTD SVG 1.1//EN"
 "http://www.w3.org/Graphics/SVG/1.1/DTD/svg11.dtd">
<!-- Generated by graphviz version 2.38.0 (20140413.2041)
 -->
<!-- Title: yarr/random.hpp Pages: 1 -->
<svg width="223pt" height="84pt"
 viewBox="0.00 0.00 222.50 84.00" xmlns="http://www.w3.org/2000/svg" xmlns:xlink="http://www.w3.org/1999/xlink">
<g id="graph0" class="graph" transform="scale(1 1) rotate(0) translate(4 80)">
<title>yarr/random.hpp</title>
<polygon fill="white" stroke="none" points="-4,4 -4,-80 218.5,-80 218.5,4 -4,4"/>
<!-- Node1 -->
<g id="node1" class="node"><title>Node1</title>
<polygon fill="#bfbfbf" stroke="black" points="78.5,-56.5 78.5,-75.5 167.5,-75.5 167.5,-56.5 78.5,-56.5"/>
<text text-anchor="middle" x="123" y="-63.5" font-family="Helvetica,sans-Serif" font-size="10.00">yarr/random.hpp</text>
</g>
<!-- Node2 -->
<g id="node2" class="node"><title>Node2</title>
<g id="a_node2"><a xlink:href="config_8hpp_source.html" target="_top" xlink:title="yarr/config.hpp">
<polygon fill="white" stroke="black" points="0,-0.5 0,-19.5 82,-19.5 82,-0.5 0,-0.5"/>
<text text-anchor="middle" x="41" y="-7.5" font-family="Helvetica,sans-Serif" font-size="10.00">yarr/config.hpp</text>
</a>
</g>
</g>
<!-- Node1&#45;&gt;Node2 -->
<g id="edge1" class="edge"><title>Node1&#45;&gt;Node2</title>
<path fill="none" stroke="midnightblue" d="M109.825,-56.324C97.1532,-47.979 77.7666,-35.2122 62.7944,-25.3524"/>
<polygon fill="midnightblue" stroke="midnightblue" points="64.4187,-22.2313 54.142,-19.6545 60.5688,-28.0776 64.4187,-22.2313"/>
</g>
<!-- Node3 -->
<g id="node3" class="node"><title>Node3</title>
<polygon fill="white" stroke="#bfbfbf" points="100.5,-0.5 100.5,-19.5 145.5,-19.5 145.5,-0.5 100.5,-0.5"/>
<text text-anchor="middle" x="123" y="-7.5" font-family="Helvetica,sans-Serif" font-size="10.00">cstdint</text>
</g>
<!-- Node1&#45;&gt;Node3 -->
<g id="edge2" class="edge"><title>Node1&#45;&gt;Node3</title>
<path fill="none" stroke="midnightblue" d="M123,-56.083C123,-49.0059 123,-38.8611 123,-29.9865"/>
<polygon fill="midnightblue" stroke="midnightblue" points="126.5,-29.751 123,-19.7511 119.5,-29.7511 126.5,-29.751"/>
</g>
<!-- Node4 -->
<g id="node4" class="node"><title>Node4</title>
<polygon fill="white" stroke="#bfbfbf" points="163.5,-0.5 163.5,-19.5 214.5,-19.5 214.5,-0.5 163.5,-0.5"/>
<text text-anchor="middle" x="189" y="-7.5" font-family="Helvetica,sans-Serif" font-size="10.00">random</text>
</g>
<!-- Node1&#45;&gt;Node4 -->
<g id="edge3" class="edge"><title>Node1&#45;&gt;Node4</title>
<path fill="none" stroke="midnightblue" d="M133.604,-56.324C143.456,-48.2631 158.351,-36.0765 170.215,-26.3695"/>
<polygon fill="midnightblue" stroke="midnightblue" points="172.68,-28.8752 178.203,-19.8339 168.247,-23.4575 172.68,-28.8752"/>
</g>
</g>
</svg>
